<mxfile host="app.diagrams.net" agent="Mozilla/5.0 (Windows NT 10.0; Win64; x64; rv:129.0) Gecko/20100101 Firefox/129.0" version="24.7.7">
  <diagram name="Halaman-1" id="19iOQ30Kg4clNsiP0c6B">
    <mxGraphModel dx="1562" dy="2015" grid="1" gridSize="10" guides="1" tooltips="1" connect="1" arrows="1" fold="1" page="1" pageScale="1" pageWidth="827" pageHeight="1169" math="0" shadow="0">
      <root>
        <mxCell id="0" />
        <mxCell id="1" parent="0" />
        <mxCell id="NeysZX1PXS7Z00Ec19RC-2" value="Actor" style="shape=umlActor;verticalLabelPosition=bottom;verticalAlign=top;html=1;" parent="1" vertex="1">
          <mxGeometry x="70" y="328" width="30" height="60" as="geometry" />
        </mxCell>
        <mxCell id="NeysZX1PXS7Z00Ec19RC-4" value="" style="swimlane;startSize=0;" parent="1" vertex="1">
          <mxGeometry x="210" y="-60" width="690" height="670" as="geometry" />
        </mxCell>
        <mxCell id="NeysZX1PXS7Z00Ec19RC-8" value="HALAMAN BRANDS" style="ellipse;whiteSpace=wrap;html=1;" parent="NeysZX1PXS7Z00Ec19RC-4" vertex="1">
          <mxGeometry x="277.5" y="383" width="140" height="70" as="geometry" />
        </mxCell>
        <mxCell id="NeysZX1PXS7Z00Ec19RC-9" value="HALAMAN REVIEWS" style="ellipse;whiteSpace=wrap;html=1;" parent="NeysZX1PXS7Z00Ec19RC-4" vertex="1">
          <mxGeometry x="275" y="490" width="140" height="70" as="geometry" />
        </mxCell>
        <mxCell id="NeysZX1PXS7Z00Ec19RC-12" value="HALAMAN ABOUT" style="ellipse;whiteSpace=wrap;html=1;" parent="NeysZX1PXS7Z00Ec19RC-4" vertex="1">
          <mxGeometry x="277.5" y="290" width="140" height="70" as="geometry" />
        </mxCell>
        <mxCell id="NeysZX1PXS7Z00Ec19RC-28" value="USE CASE DIAGRAM" style="text;html=1;align=center;verticalAlign=middle;resizable=0;points=[];autosize=1;strokeColor=none;fillColor=none;" parent="NeysZX1PXS7Z00Ec19RC-4" vertex="1">
          <mxGeometry x="200" y="18" width="240" height="30" as="geometry" />
        </mxCell>
        <mxCell id="XocaOv4_1o6bXxIs0eSQ-1" value="&lt;div&gt;HALAMAN UTAMA&lt;/div&gt;&lt;div&gt;(VIEW)&lt;br&gt;&lt;/div&gt;" style="ellipse;whiteSpace=wrap;html=1;" vertex="1" parent="NeysZX1PXS7Z00Ec19RC-4">
          <mxGeometry x="40" y="383" width="140" height="70" as="geometry" />
        </mxCell>
        <mxCell id="XocaOv4_1o6bXxIs0eSQ-4" value="" style="endArrow=open;endFill=1;endSize=12;html=1;rounded=0;exitX=0.677;exitY=0.054;exitDx=0;exitDy=0;exitPerimeter=0;entryX=0.026;entryY=0.592;entryDx=0;entryDy=0;entryPerimeter=0;" edge="1" parent="NeysZX1PXS7Z00Ec19RC-4" source="XocaOv4_1o6bXxIs0eSQ-1" target="NeysZX1PXS7Z00Ec19RC-12">
          <mxGeometry width="160" relative="1" as="geometry">
            <mxPoint x="125" y="330" as="sourcePoint" />
            <mxPoint x="220" y="330" as="targetPoint" />
          </mxGeometry>
        </mxCell>
        <mxCell id="XocaOv4_1o6bXxIs0eSQ-7" value="&amp;lt;&amp;lt;include&amp;gt;&amp;gt;" style="edgeLabel;html=1;align=center;verticalAlign=middle;resizable=0;points=[];" vertex="1" connectable="0" parent="XocaOv4_1o6bXxIs0eSQ-4">
          <mxGeometry x="-0.2328" relative="1" as="geometry">
            <mxPoint as="offset" />
          </mxGeometry>
        </mxCell>
        <mxCell id="XocaOv4_1o6bXxIs0eSQ-5" value="" style="endArrow=open;endFill=1;endSize=12;html=1;rounded=0;" edge="1" parent="NeysZX1PXS7Z00Ec19RC-4" source="XocaOv4_1o6bXxIs0eSQ-1" target="NeysZX1PXS7Z00Ec19RC-8">
          <mxGeometry width="160" relative="1" as="geometry">
            <mxPoint x="321" y="471" as="sourcePoint" />
            <mxPoint x="444" y="365" as="targetPoint" />
          </mxGeometry>
        </mxCell>
        <mxCell id="XocaOv4_1o6bXxIs0eSQ-8" value="&amp;lt;&amp;lt;include&amp;gt;&amp;gt;" style="edgeLabel;html=1;align=center;verticalAlign=middle;resizable=0;points=[];" vertex="1" connectable="0" parent="XocaOv4_1o6bXxIs0eSQ-5">
          <mxGeometry x="0.1924" y="1" relative="1" as="geometry">
            <mxPoint as="offset" />
          </mxGeometry>
        </mxCell>
        <mxCell id="XocaOv4_1o6bXxIs0eSQ-6" value="" style="endArrow=open;endFill=1;endSize=12;html=1;rounded=0;exitX=0.658;exitY=0.929;exitDx=0;exitDy=0;exitPerimeter=0;entryX=0.026;entryY=0.449;entryDx=0;entryDy=0;entryPerimeter=0;" edge="1" parent="NeysZX1PXS7Z00Ec19RC-4" source="XocaOv4_1o6bXxIs0eSQ-1" target="NeysZX1PXS7Z00Ec19RC-9">
          <mxGeometry width="160" relative="1" as="geometry">
            <mxPoint x="190" y="470" as="sourcePoint" />
            <mxPoint x="254" y="470" as="targetPoint" />
          </mxGeometry>
        </mxCell>
        <mxCell id="XocaOv4_1o6bXxIs0eSQ-9" value="&amp;lt;&amp;lt;include&amp;gt;&amp;gt;" style="edgeLabel;html=1;align=center;verticalAlign=middle;resizable=0;points=[];" vertex="1" connectable="0" parent="XocaOv4_1o6bXxIs0eSQ-6">
          <mxGeometry x="0.3363" y="-1" relative="1" as="geometry">
            <mxPoint as="offset" />
          </mxGeometry>
        </mxCell>
        <mxCell id="XocaOv4_1o6bXxIs0eSQ-10" value="&lt;div&gt;TOMBOL&lt;/div&gt;&lt;div&gt;GET STARTED&lt;br&gt;&lt;/div&gt;" style="ellipse;whiteSpace=wrap;html=1;" vertex="1" parent="NeysZX1PXS7Z00Ec19RC-4">
          <mxGeometry x="510" y="280" width="140" height="70" as="geometry" />
        </mxCell>
        <mxCell id="XocaOv4_1o6bXxIs0eSQ-11" value="" style="endArrow=open;endFill=1;endSize=12;html=1;rounded=0;entryX=1;entryY=0.5;entryDx=0;entryDy=0;exitX=0.012;exitY=0.584;exitDx=0;exitDy=0;exitPerimeter=0;" edge="1" parent="NeysZX1PXS7Z00Ec19RC-4" source="XocaOv4_1o6bXxIs0eSQ-10" target="NeysZX1PXS7Z00Ec19RC-12">
          <mxGeometry width="160" relative="1" as="geometry">
            <mxPoint x="430.00472175796676" y="341.6694795462637" as="sourcePoint" />
            <mxPoint x="537.29" y="340.0000000000001" as="targetPoint" />
          </mxGeometry>
        </mxCell>
        <mxCell id="XocaOv4_1o6bXxIs0eSQ-12" value="&amp;lt;&amp;lt;extend&amp;gt;&amp;gt;" style="edgeLabel;html=1;align=center;verticalAlign=middle;resizable=0;points=[];" vertex="1" connectable="0" parent="XocaOv4_1o6bXxIs0eSQ-11">
          <mxGeometry x="-0.2328" relative="1" as="geometry">
            <mxPoint as="offset" />
          </mxGeometry>
        </mxCell>
        <mxCell id="XocaOv4_1o6bXxIs0eSQ-14" value="HEADER" style="ellipse;whiteSpace=wrap;html=1;" vertex="1" parent="NeysZX1PXS7Z00Ec19RC-4">
          <mxGeometry x="40" y="200" width="140" height="70" as="geometry" />
        </mxCell>
        <mxCell id="XocaOv4_1o6bXxIs0eSQ-15" value="FOOTER" style="ellipse;whiteSpace=wrap;html=1;" vertex="1" parent="NeysZX1PXS7Z00Ec19RC-4">
          <mxGeometry x="40" y="490" width="140" height="70" as="geometry" />
        </mxCell>
        <mxCell id="XocaOv4_1o6bXxIs0eSQ-16" value="" style="endArrow=open;endFill=1;endSize=12;html=1;rounded=0;entryX=0.5;entryY=1;entryDx=0;entryDy=0;" edge="1" parent="NeysZX1PXS7Z00Ec19RC-4" target="XocaOv4_1o6bXxIs0eSQ-14">
          <mxGeometry width="160" relative="1" as="geometry">
            <mxPoint x="110" y="387" as="sourcePoint" />
            <mxPoint x="362" y="633" as="targetPoint" />
          </mxGeometry>
        </mxCell>
        <mxCell id="XocaOv4_1o6bXxIs0eSQ-17" value="&amp;lt;&amp;lt;include&amp;gt;&amp;gt;" style="edgeLabel;html=1;align=center;verticalAlign=middle;resizable=0;points=[];" vertex="1" connectable="0" parent="XocaOv4_1o6bXxIs0eSQ-16">
          <mxGeometry x="0.3363" y="-1" relative="1" as="geometry">
            <mxPoint as="offset" />
          </mxGeometry>
        </mxCell>
        <mxCell id="XocaOv4_1o6bXxIs0eSQ-18" value="" style="endArrow=open;endFill=1;endSize=12;html=1;rounded=0;entryX=0.479;entryY=0.007;entryDx=0;entryDy=0;exitX=0.475;exitY=1;exitDx=0;exitDy=0;exitPerimeter=0;entryPerimeter=0;" edge="1" parent="NeysZX1PXS7Z00Ec19RC-4" source="XocaOv4_1o6bXxIs0eSQ-1" target="XocaOv4_1o6bXxIs0eSQ-15">
          <mxGeometry width="160" relative="1" as="geometry">
            <mxPoint x="470" y="527" as="sourcePoint" />
            <mxPoint x="480" y="420" as="targetPoint" />
          </mxGeometry>
        </mxCell>
        <mxCell id="XocaOv4_1o6bXxIs0eSQ-19" value="&amp;lt;&amp;lt;include&amp;gt;&amp;gt;" style="edgeLabel;html=1;align=center;verticalAlign=middle;resizable=0;points=[];" vertex="1" connectable="0" parent="XocaOv4_1o6bXxIs0eSQ-18">
          <mxGeometry x="0.3363" y="-1" relative="1" as="geometry">
            <mxPoint as="offset" />
          </mxGeometry>
        </mxCell>
        <mxCell id="XocaOv4_1o6bXxIs0eSQ-20" value="" style="endArrow=open;endFill=1;endSize=12;html=1;rounded=0;exitX=0.824;exitY=0.167;exitDx=0;exitDy=0;exitPerimeter=0;entryX=0;entryY=0.571;entryDx=0;entryDy=0;entryPerimeter=0;" edge="1" parent="NeysZX1PXS7Z00Ec19RC-4" source="XocaOv4_1o6bXxIs0eSQ-14" target="XocaOv4_1o6bXxIs0eSQ-23">
          <mxGeometry width="160" relative="1" as="geometry">
            <mxPoint x="470" y="327" as="sourcePoint" />
            <mxPoint x="290" y="250" as="targetPoint" />
          </mxGeometry>
        </mxCell>
        <mxCell id="XocaOv4_1o6bXxIs0eSQ-21" value="&amp;lt;&amp;lt;include&amp;gt;&amp;gt;" style="edgeLabel;html=1;align=center;verticalAlign=middle;resizable=0;points=[];" vertex="1" connectable="0" parent="XocaOv4_1o6bXxIs0eSQ-20">
          <mxGeometry x="0.3363" y="-1" relative="1" as="geometry">
            <mxPoint as="offset" />
          </mxGeometry>
        </mxCell>
        <mxCell id="XocaOv4_1o6bXxIs0eSQ-23" value="Navigation Bar" style="ellipse;whiteSpace=wrap;html=1;" vertex="1" parent="NeysZX1PXS7Z00Ec19RC-4">
          <mxGeometry x="275" y="90" width="140" height="70" as="geometry" />
        </mxCell>
        <mxCell id="XocaOv4_1o6bXxIs0eSQ-24" value="Tombol Kontak" style="ellipse;whiteSpace=wrap;html=1;" vertex="1" parent="NeysZX1PXS7Z00Ec19RC-4">
          <mxGeometry x="275" y="190" width="145" height="70" as="geometry" />
        </mxCell>
        <mxCell id="XocaOv4_1o6bXxIs0eSQ-25" value="" style="endArrow=open;endFill=1;endSize=12;html=1;rounded=0;exitX=0.022;exitY=0.532;exitDx=0;exitDy=0;exitPerimeter=0;entryX=0.974;entryY=0.403;entryDx=0;entryDy=0;entryPerimeter=0;" edge="1" parent="NeysZX1PXS7Z00Ec19RC-4" source="XocaOv4_1o6bXxIs0eSQ-24" target="XocaOv4_1o6bXxIs0eSQ-14">
          <mxGeometry width="160" relative="1" as="geometry">
            <mxPoint x="190" y="250" as="sourcePoint" />
            <mxPoint x="254" y="130" as="targetPoint" />
          </mxGeometry>
        </mxCell>
        <mxCell id="XocaOv4_1o6bXxIs0eSQ-26" value="&amp;lt;&amp;lt;extend&amp;gt;&amp;gt;" style="edgeLabel;html=1;align=center;verticalAlign=middle;resizable=0;points=[];" vertex="1" connectable="0" parent="XocaOv4_1o6bXxIs0eSQ-25">
          <mxGeometry x="0.3363" y="-1" relative="1" as="geometry">
            <mxPoint x="18" y="6" as="offset" />
          </mxGeometry>
        </mxCell>
        <mxCell id="XocaOv4_1o6bXxIs0eSQ-2" value="" style="endArrow=open;endFill=1;endSize=12;html=1;rounded=0;exitX=0.5;exitY=0.5;exitDx=0;exitDy=0;exitPerimeter=0;entryX=0;entryY=0.5;entryDx=0;entryDy=0;" edge="1" parent="1" source="NeysZX1PXS7Z00Ec19RC-2" target="XocaOv4_1o6bXxIs0eSQ-1">
          <mxGeometry width="160" relative="1" as="geometry">
            <mxPoint x="105" y="260" as="sourcePoint" />
            <mxPoint x="414" y="143" as="targetPoint" />
          </mxGeometry>
        </mxCell>
      </root>
    </mxGraphModel>
  </diagram>
</mxfile>
